# xmcd
#
# Track frame offsets:
#	150
#	11125
#	24500
#	36837
#	48475
#	60162
#	71225
#	86087
#	100450
#	112087
#	125975
#	137425
#	151350
#	161050
#	172575
#	184612
#	196300
#	208787
#	219462
#	231525
#
# Disc length: 3220
#
# Revision: 2
# Processed by: cddbd v1.5.1PL0 Copyright (c) Steve Scherf et al.
# Submitted via: CDex 1.40Release
# Normalized: r0:TDELIM( - ),TSWAP
#
DISCID=220c9214
DTITLE=Bad Girls - 20 Golden Country Hits
DYEAR=1994
DGENRE=Country
TTITLE0=Tammy Wynette - Womanhood
TTITLE1=Lynn Anderson - Rose Garden
TTITLE2=Jeanne Pruett - Satin Sheets
TTITLE3=Sammi Smith - Help Me Make It Through The Night
TTITLE4=Patsy Cline - Just Out Of Reach
TTITLE5=Barbie Benton - Queen Of Country
TTITLE6=Jeannie C Riley - Harper Valley P.T.A.
TTITLE7=Billie Jo Spears - Mr Walker It's All Over
TTITLE8=Dolly Parton - Makin' Believe
TTITLE9=Jeannie Seely - Don't Touch Me
TTITLE10=Tammy Wynette - Divorce
TTITLE11=Barbara Fairchild - Teddy Bear Song
TTITLE12=Lynne Anderson - Snowbird
TTITLE13=Donna Fargo - The Happiest Girl In The Whole USA
TTITLE14=Jody Miller - Queen Of The House
TTITLE15=Patsy Cline - Walkin' After Midnight
TTITLE16=Dottie West - Crazy
TTITLE17=Dolly Parton - Honky Tonk Angels
TTITLE18=Wanda Jackson - Right Or Wrong
TTITLE19=Connie Smith - Once A Day
EXTD=YEAR: 1994 ID3G: 2
EXTT0=
EXTT1=
EXTT2=
EXTT3=
EXTT4=
EXTT5=
EXTT6=
EXTT7=
EXTT8=
EXTT9=
EXTT10=
EXTT11=
EXTT12=
EXTT13=
EXTT14=
EXTT15=
EXTT16=
EXTT17=
EXTT18=
EXTT19=
PLAYORDER=
